<?xml version="1.0"?>
<svg xmlns="http://www.w3.org/2000/svg" id="Capa_1" enable-background="new 0 0 512.387 512.387" height="512px" viewBox="0 0 512.387 512.387" width="512px"><g><g><path d="m492.748 467.321c-9.026-126.012-8.042-110.195-11.659-218.543v-162.971c0-4.142-3.357-7.5-7.5-7.5s-7.5 3.358-7.5 7.5v163.095c0 .083.001.167.004.25l2.346 70.263h-35.321l1.987-55.761c.072-2.034-.685-4.01-2.099-5.475-2.85-2.955-5.452-2.292-15.518-2.292-.242-63.989 5.074-113.197 5.074-113.197 7.614-77.001 23.37-122.837 43.526-127.305v35.422c0 4.142 3.357 7.5 7.5 7.5s7.5-3.358 7.5-7.5v-42.92c0-3.661-2.644-6.787-6.253-7.396-49.257-8.306-62.259 90.723-67.204 140.75-4.517 45.697-5.538 96.595-5.079 122.276.072 4.09 3.408 7.369 7.499 7.369h9.785c-3.222 90.398-2.661 80.062-10.997 196.434-1.742 24.325 17.565 45.066 41.954 45.066 24.387.001 43.697-20.74 41.955-45.065zm-41.954 30.066c-15.736 0-28.115-13.314-26.993-28.995 4.534-63.296 6.572-89.162 8.725-133.977h36.536c2.162 44.946 4.206 70.887 8.726 133.977 1.122 15.696-11.274 28.995-26.994 28.995z" fill="#FFFFFF"/><path d="m99.298.387c-23.137 0-45.087 12.485-60.225 34.255-2.364 3.401-1.524 8.075 1.877 10.439 3.398 2.365 8.073 1.524 10.439-1.876 12.292-17.679 29.754-27.818 47.908-27.818 35.714 0 64.769 38.019 64.769 84.75 0 36.844-18.036 69.253-44.881 80.648-2.946 1.25-4.7 4.182-4.563 7.239l2.458 131.391h-35.565l2.462-131.587c.057-3.06-1.751-5.848-4.568-7.044-26.844-11.395-44.879-43.804-44.879-80.647.001-9.458 1.188-18.745 3.53-27.602 1.059-4.004-1.329-8.109-5.334-9.168-4.004-1.06-8.109 1.33-9.168 5.334-2.672 10.106-4.027 20.683-4.028 31.435 0 40.689 19.64 77.018 49.358 92.273-3.12 166.773-1.454 134.053-11.544 274.911-1.742 24.325 17.565 45.066 41.954 45.066 24.386 0 43.696-20.741 41.954-45.066-10.154-141.76-8.464-110.256-11.544-274.911 29.72-15.255 49.358-51.583 49.358-92.273.001-55.001-35.784-99.749-79.768-99.749zm0 497c-15.736 0-28.115-13.314-26.993-28.995l4.329-60.436c1.739-24.276 3.216-48.982 4.396-73.541h36.536c1.182 24.57 2.658 49.274 4.396 73.541l4.329 60.436c1.123 15.696-11.273 28.995-26.993 28.995z" fill="#FFFFFF"/><path d="m335.438.411c-11.479.541-20.471 10.148-20.471 21.871v84.793c0 3.516-2.86 6.376-6.376 6.376s-6.376-2.86-6.376-6.376v-84.793c0-11.724-8.992-21.331-20.471-21.871-12.447-.591-22.529 9.375-22.529 21.476v85.188c0 3.516-2.86 6.376-6.376 6.376s-6.376-2.86-6.376-6.376v-85.188c0-11.855-9.645-21.5-21.5-21.5s-21.5 9.645-21.5 21.5v132.749c0 23.492 18.274 45.252 46.837 45.252.049 73.584-2.466 140.75-7.21 206.998-4.721 65.91-4.438 61.316-4.438 63.483 0 23.169 18.869 42.019 42.063 42.019 24.273 0 43.709-20.615 41.954-45.067l-1.614-22.533c-.296-4.131-3.872-7.231-8.017-6.945-4.131.296-7.24 3.885-6.944 8.017 1.756 24.519 1.685 23.136 1.685 24.509 0 14.898-12.141 27.019-27.063 27.019s-27.063-12.121-27.063-27.019c0-1.421-.284 2.972 4.399-62.412 1.738-24.266 3.215-48.971 4.396-73.541h36.536c1.333 27.744 2.806 51.304 4.609 76.532.296 4.132 3.871 7.24 8.016 6.946 4.131-.295 7.241-3.884 6.945-8.016-6.654-93.13-7.657-150.841-7.618-209.991 29.037 0 47.031-22.005 47.031-45.252v-132.748c0-12.014-10.004-22.071-22.529-21.476zm7.529 154.224c0 16.681-13.571 30.252-30.252 30.252h-9.277c-4.143 0-7.5 3.358-7.5 7.5 0 67.744-.538 41.096 2.349 127.028h-35.337c2.877-85.737 2.349-59.173 2.349-127.028 0-4.142-3.357-7.5-7.5-7.5h-9.083c-16.681 0-30.252-13.571-30.252-30.252v-132.748c0-3.584 2.916-6.5 6.5-6.5s6.5 2.916 6.5 6.5v85.188c0 11.787 9.589 21.376 21.376 21.376s21.376-9.589 21.376-21.376v-85.188c0-3.668 3.043-6.672 6.824-6.493 3.405.16 6.176 3.25 6.176 6.888v84.793c0 11.787 9.589 21.376 21.376 21.376s21.376-9.589 21.376-21.376v-84.793c0-3.637 2.771-6.727 6.176-6.888 3.79-.175 6.824 2.829 6.824 6.493v132.748z" fill="#FFFFFF"/></g></g></svg>
