<?xml version="1.0"?>
<svg xmlns="http://www.w3.org/2000/svg" id="Capa_1" enable-background="new 0 0 512 512" height="512px" viewBox="0 0 512 512" width="512px"><g><path d="m331.547 0c-99.502 0-180.453 80.955-180.453 180.463s80.951 180.463 180.453 180.463c27.461 0 53.834-6.013 78.385-17.871l-6.534-13.529c-7.357 3.553-14.897 6.523-22.589 8.925l-41.75-30.509v-61.569l56.592-41.355 54.717 21.704 16.176 49.33c-7.349 10.385-15.923 19.983-25.636 28.548l9.936 11.269c38.865-34.273 61.156-83.626 61.156-135.406 0-99.508-80.951-180.463-180.453-180.463zm165.402 182.48-41.601 30.053-54.723-21.706-21.512-66.593 33.268-42.488 51.733-.141c20.632 27.599 32.861 61.827 32.861 98.858.001.673-.017 1.344-.026 2.017zm-45.484-115.865-37.281.101-11.451-35.573c18.363 8.791 34.863 20.869 48.732 35.472zm-191.105-35.472-11.451 35.573-37.281-.101c13.869-14.603 30.369-26.681 48.732-35.472zm-61.382 50.462 51.733.141 10.337 13.202 11.829-9.263-10.127-12.934 15.778-49.014c16.651-5.648 34.484-8.713 53.019-8.713s36.368 3.064 53.019 8.713l15.778 49.014-32.673 41.728h-72.249l-12.193-15.573-11.829 9.263 12.58 16.067-21.511 66.591-54.723 21.706-41.602-30.054c-.008-.672-.026-1.342-.026-2.016-.001-37.031 12.229-71.259 32.86-98.858zm-1.14 142.305-11.641 35.496c-9.529-17.476-15.994-36.851-18.678-57.399zm-1.273 52.095 16.162-49.285 54.717-21.704 56.592 41.355v61.569l-41.712 30.482c-34.973-10.921-64.995-33.163-85.759-62.417zm134.982 69.896c-10.313 0-20.405-.957-30.2-2.772l30.2-22.069 30.23 22.091c-9.881 1.82-19.97 2.75-30.23 2.75zm0-112.648-54.202-39.608 20.721-64.142h66.963l20.721 64.142zm133.709-9.343 30.303-21.892c-2.658 20.203-9.023 39.649-18.66 57.395z" fill="#FFFFFF"/><path d="m417.769 321.683 7.842 12.815c4.468-2.734 8.867-5.698 13.075-8.809l-8.93-12.082c-3.857 2.851-7.891 5.568-11.987 8.076z" fill="#FFFFFF"/><path d="m212.08 116.92-13.302-6.982c-2.7 5.143-4.88 9.831-6.667 14.333l13.963 5.543c1.591-4.006 3.555-8.223 6.006-12.894z" fill="#FFFFFF"/><path d="m198.287 157.122c.754-4.509 1.9-9.525 3.145-13.76l-14.415-4.233c-1.405 4.785-2.698 10.439-3.548 15.514z" fill="#FFFFFF"/><path d="m233.418 511.951 22.535.049 107.292-108.635-10.624-10.623z" fill="#FFFFFF"/><path d="m366.979 373.746h15.496v15.024h-15.496z" transform="matrix(.707 -.707 .707 .707 -159.836 376.651)" fill="#FFFFFF"/><path d="m118.411 161.779-10.625-10.624-107.659 107.664-.075 21.323z" fill="#FFFFFF"/><path d="m121.466 133.142h14.888v15.024h-14.888z" transform="matrix(.707 -.707 .707 .707 -61.701 132.354)" fill="#FFFFFF"/><path d="m5.469 390.14h219.801v15.024h-219.801z" transform="matrix(.707 -.707 .707 .707 -247.397 198.057)" fill="#FFFFFF"/><path d="m0 502.463.047 9.537h11.417l19.872-19.686-10.624-10.624z" fill="#FFFFFF"/><path d="m125.896 417.837h161.93v15.024h-161.93z" transform="matrix(.707 -.707 .707 .707 -240.183 270.866)" fill="#FFFFFF"/><path d="m5.708 297.642h161.93v15.024h-161.93z" transform="matrix(.707 -.707 .707 .707 -190.394 150.67)" fill="#FFFFFF"/><path d="m309.011 142.902h15.024v15.024h-15.024z" fill="#FFFFFF"/></g></svg>
