<svg xmlns="http://www.w3.org/2000/svg" width="31.325" height="31.325" viewBox="0 0 31.325 31.325"><defs><style>.a{fill:#fff;}.b{fill:#1976d2;}</style></defs><path class="a" d="M27.409,0H3.916A3.92,3.92,0,0,0,0,3.916V27.409a3.92,3.92,0,0,0,3.916,3.916H27.409a3.92,3.92,0,0,0,3.916-3.916V3.916A3.92,3.92,0,0,0,27.409,0Z"/><path class="b" d="M206.683,105.789h-4.895v-3.916c0-1.081.877-.979,1.958-.979H205.7V96h-3.916a5.873,5.873,0,0,0-5.873,5.873v3.916H192v4.894h3.916v10.768h5.873V110.683h2.937Z" transform="translate(-180.253 -90.127)"/></svg>