<svg xmlns="http://www.w3.org/2000/svg" width="34.82" height="34.82" viewBox="0 0 34.82 34.82"><defs><style>.a{fill:#167ee6;}.b{fill:#12b347;}.c{fill:#0f993e;}.d{fill:#ffd500;}.e{fill:#ff4b26;}.f{fill:#d93f21;}</style></defs><path class="a" d="M282.469,211.48h-14.2a1.135,1.135,0,0,0-1.136,1.135v4.537a1.136,1.136,0,0,0,1.135,1.135h8a10.677,10.677,0,0,1-4.6,5.386l3.41,5.9a17.071,17.071,0,0,0,8.705-14.93,11.509,11.509,0,0,0-.2-2.23A1.141,1.141,0,0,0,282.469,211.48Z" transform="translate(-248.964 -197.097)"/><path class="b" d="M49.481,339.15a10.6,10.6,0,0,1-9.166-5.3l-5.9,3.4a17.4,17.4,0,0,0,23.775,6.381v-.008l-3.41-5.9A10.518,10.518,0,0,1,49.481,339.15Z" transform="translate(-32.071 -311.143)"/><path class="c" d="M264.705,396.691v-.008l-3.41-5.9A10.519,10.519,0,0,1,256,392.21v6.813A17.38,17.38,0,0,0,264.705,396.691Z" transform="translate(-238.59 -364.203)"/><path class="d" d="M6.813,136.816a10.519,10.519,0,0,1,1.431-5.294l-5.9-3.4a17.33,17.33,0,0,0,0,17.394l5.9-3.4A10.519,10.519,0,0,1,6.813,136.816Z" transform="translate(0 -119.406)"/><path class="e" d="M49.481,6.813a10.549,10.549,0,0,1,6.728,2.416,1.131,1.131,0,0,0,1.522-.069l3.215-3.215a1.144,1.144,0,0,0-.065-1.673A17.372,17.372,0,0,0,34.411,8.713l5.9,3.4A10.6,10.6,0,0,1,49.481,6.813Z" transform="translate(-32.071)"/><path class="f" d="M262.728,9.228a1.131,1.131,0,0,0,1.522-.069l3.215-3.215a1.144,1.144,0,0,0-.065-1.673A17.358,17.358,0,0,0,256,0V6.813A10.549,10.549,0,0,1,262.728,9.228Z" transform="translate(-238.59)"/></svg>