<?xml version="1.0" encoding="iso-8859-1"?>
<!-- Generator: Adobe Illustrator 19.0.0, SVG Export Plug-In . SVG Version: 6.00 Build 0)  -->
<svg xmlns="http://www.w3.org/2000/svg" xmlns:xlink="http://www.w3.org/1999/xlink" version="1.1" id="Capa_1" x="0px" y="0px" viewBox="0 0 439.436 439.436" style="enable-background:new 0 0 439.436 439.436;" xml:space="preserve" width="512px" height="512px">
<g>
	<g>
		<path d="M439.08,85.342c-0.114-0.258-0.242-0.509-0.384-0.752c-0.284-0.736-0.674-1.426-1.16-2.048    c-0.048-0.064-0.064-0.144-0.112-0.2c-0.256-0.208-0.523-0.403-0.8-0.584c-0.481-0.46-1.019-0.858-1.6-1.184    c-0.433-0.188-0.883-0.336-1.344-0.44c-0.414-0.183-0.846-0.325-1.288-0.424c-0.168,0-0.32,0.048-0.488,0    c-0.168-0.048-0.304-0.056-0.464-0.056H89.224l-7.336-51.4c-1.74-11.795-11.837-20.55-23.76-20.6H8c-4.418,0-8,3.582-8,8    s3.582,8,8,8h50.128c3.98-0.001,7.355,2.924,7.92,6.864l44.064,308.536c1.74,11.795,11.837,20.55,23.76,20.6H168v9.136    c-17.112,4.418-27.402,21.872-22.984,38.984c4.418,17.112,21.872,27.402,38.984,22.984s27.402-21.872,22.984-38.984    c-2.91-11.272-11.712-20.074-22.984-22.984v-9.136h144v9.136c-17.112,4.418-27.402,21.872-22.984,38.984    c4.418,17.112,21.872,27.402,38.984,22.984c17.112-4.418,27.402-21.872,22.984-38.984c-2.91-11.272-11.712-20.074-22.984-22.984    v-9.136h24c4.418,0,8-3.582,8-8s-3.582-8-8-8H133.872c-3.98,0-7.355-2.924-7.92-6.864l-7.016-49.136h289.6    c1.319,0.108,2.634-0.261,3.704-1.04c0.569-0.262,1.106-0.59,1.6-0.976c0.277-0.296,0.528-0.614,0.752-0.952    c0.38-0.39,0.718-0.819,1.008-1.28c0.474-0.871,0.78-1.824,0.904-2.808l22.88-192C439.511,87.504,439.407,86.395,439.08,85.342z     M336,407.654c4.418,0,8-3.582,8-8v-13.776c4.934,2.835,7.983,8.085,8,13.776c0.044,8.836-7.083,16.036-15.919,16.08    c-8.836,0.044-16.036-7.083-16.08-15.919c-0.029-5.745,3.024-11.064,8-13.937v13.776C328,404.073,331.582,407.654,336,407.654z     M176,407.654c4.418,0,8-3.582,8-8v-13.776c4.934,2.835,7.983,8.085,8,13.776c0.044,8.836-7.083,16.036-15.919,16.08    c-8.836,0.044-16.036-7.083-16.08-15.919c-0.029-5.745,3.024-11.064,8-13.937v13.776C168,404.073,171.582,407.654,176,407.654z     M116.648,271.654l-25.104-176h47.832l25.08,176H116.648z M180.624,271.654l-25.08-176h55.2l10.464,176H180.624z M280.8,271.654    h-43.584l-10.408-176h60.344L280.8,271.654z M296.848,271.654l6.352-176h55.2l-20.944,176H296.848z M401.456,271.654H353.6    l20.976-176H422.4L401.456,271.654z" fill="#005AE6"/>
	</g>
</g>
<g>
</g>
<g>
</g>
<g>
</g>
<g>
</g>
<g>
</g>
<g>
</g>
<g>
</g>
<g>
</g>
<g>
</g>
<g>
</g>
<g>
</g>
<g>
</g>
<g>
</g>
<g>
</g>
<g>
</g>
</svg>
