<svg xmlns="http://www.w3.org/2000/svg" width="34.82" height="28.291" viewBox="0 0 34.82 28.291"><defs><style>.a{fill:#fff;}</style></defs><path class="a" d="M34.82,51.349a14.883,14.883,0,0,1-4.113,1.127,7.1,7.1,0,0,0,3.14-3.946,14.266,14.266,0,0,1-4.527,1.728A7.138,7.138,0,0,0,16.973,55.14a7.35,7.35,0,0,0,.165,1.628A20.2,20.2,0,0,1,2.424,49.3a7.14,7.14,0,0,0,2.194,9.541,7.05,7.05,0,0,1-3.225-.879v.078a7.171,7.171,0,0,0,5.719,7.014,7.125,7.125,0,0,1-1.872.235,6.312,6.312,0,0,1-1.351-.122,7.206,7.206,0,0,0,6.67,4.973,14.343,14.343,0,0,1-8.851,3.045A13.371,13.371,0,0,1,0,73.088a20.1,20.1,0,0,0,10.951,3.2c13.136,0,20.318-10.881,20.318-20.313,0-.316-.011-.62-.026-.923A14.241,14.241,0,0,0,34.82,51.349Z" transform="translate(0 -48)"/></svg>