<svg xmlns="http://www.w3.org/2000/svg" width="123.698" height="44.518" viewBox="0 0 123.698 44.518"><defs><style>.a{fill:#ef2e3a;}</style></defs><g transform="translate(1946.889 1117.095)"><g transform="translate(-1911.631 -1105.325)"><path class="a" d="M-1816.626-1062.771c0,1.176-.828,2-2.484,2.658a14.768,14.768,0,0,1-5.664.958,10.693,10.693,0,0,1-7.886-2.919,10.769,10.769,0,0,1-2.919-7.711,10.412,10.412,0,0,1,2.832-7.363,10.089,10.089,0,0,1,7.363-2.788,9.635,9.635,0,0,1,7.1,2.614,8.8,8.8,0,0,1,2.483,6.274c0,2.048-1.046,3.224-2.832,3.224h-10.892a4.753,4.753,0,0,0,5.141,4.1c3.05,0,4.182-1.351,5.62-1.351A2.208,2.208,0,0,1-1816.626-1062.771Zm-4.749-8.844a3.889,3.889,0,0,0-3.964-3.791c-2.4,0-3.834,1.481-4.226,3.791Z" transform="translate(1835.578 1079.936)"/><path class="a" d="M-1743.98-1051.879a2.8,2.8,0,0,1-2.875,2.788,2.855,2.855,0,0,1-2.875-2.788v-8.757a6.784,6.784,0,0,1-4.662,1.481c-5.751,0-8.975-4.269-8.975-10.238a10.3,10.3,0,0,1,2.483-7.1c2.135-2.353,5.533-3.442,9.237-3.442a20.909,20.909,0,0,1,4.661.392c1.917.436,3.006,1.438,3.006,3.834Zm-5.751-23.047a13.6,13.6,0,0,0-2.4-.218,5.366,5.366,0,0,0-4.487,2,5.988,5.988,0,0,0-1.09,3.659,6.686,6.686,0,0,0,1.176,4.139,3.828,3.828,0,0,0,3.137,1.481c2.788,0,3.659-2.353,3.659-4.923Z" transform="translate(1786.241 1079.936)"/><path class="a" d="M-1685.381-1077.148a2.827,2.827,0,0,1,2.875-2.788,2.827,2.827,0,0,1,2.875,2.788v8.583a5.519,5.519,0,0,0,.566,2.7,3.769,3.769,0,0,0,3.572,1.83,3.652,3.652,0,0,0,3.529-1.83,5.517,5.517,0,0,0,.566-2.7v-8.583a2.827,2.827,0,0,1,2.876-2.788,2.827,2.827,0,0,1,2.875,2.788v8.931a8.9,8.9,0,0,1-1.743,5.925c-1.742,2.178-4.575,3.136-8.1,3.136-3.572,0-6.448-1-8.147-3.136a9.231,9.231,0,0,1-1.743-5.925Z" transform="translate(1732.956 1079.936)"/><path class="a" d="M-1592.179-1079.108a2.982,2.982,0,0,1,1.7,2.614,2.5,2.5,0,0,1-2.483,2.657c-1.438,0-2-1.046-3.79-1.046-2.963,0-3.791,2.745-3.791,5.49v7.45a2.884,2.884,0,0,1-2.875,2.788,2.827,2.827,0,0,1-2.875-2.788v-15.2a2.827,2.827,0,0,1,2.875-2.788,2.856,2.856,0,0,1,2.788,2.266,6.232,6.232,0,0,1,4.923-2.266A7.393,7.393,0,0,1-1592.179-1079.108Z" transform="translate(1678.92 1079.936)"/></g><g transform="translate(-1946.889 -1117.095)"><g transform="translate(16.334 37.584)"><path class="a" d="M-1892.766-998.316a3.422,3.422,0,0,0-2.434,4.215,3.458,3.458,0,0,0,4.226,2.476,3.431,3.431,0,0,0,2.423-4.257A3.4,3.4,0,0,0-1892.766-998.316Z" transform="translate(1895.321 998.44)"/></g><g transform="translate(8.951)"><path class="a" d="M-1902.686-1115.031c-4.271-2.644-8.579-2.392-12.955-1.219l-1.033.277a2.636,2.636,0,0,0-1.864,3.228,2.636,2.636,0,0,0,3.228,1.864l.149-.04c3.282-.88,6.19-.8,8.465.618,1.784,1.1,3.147,2.991,3.936,5.937.114.424.2.837.272,1.24a10.3,10.3,0,0,1-.079,4.058,7.482,7.482,0,0,1-.779,1.941,8.507,8.507,0,0,1-2.333,2.583c-.054.038-.105.078-.161.115-.087.062-.175.124-.264.184l-.062.042-.087.061q-.722.5-1.339,1l-.012.01c-.133.108-.262.215-.387.322l-.067.058c-.125.107-.248.214-.366.322l-.02.018a17.722,17.722,0,0,0-1.347,1.356l-.022.025a15.2,15.2,0,0,0-1.224,1.573l-.017.025c-.256.382-.47.74-.646,1.068l-.025.046c-.038.071-.074.14-.108.208l-.031.062c-.022.043-.046.089-.066.131-.006.012-.011.024-.016.036a7.148,7.148,0,0,0-.562,1.511h0a5.161,5.161,0,0,0-.145,2.815,2.749,2.749,0,0,0,3.311,2.09c1.515-.406,2.134-1.293,2.18-2.975a4.527,4.527,0,0,1,.045-.481,5.037,5.037,0,0,1,.43-1.459,7.719,7.719,0,0,1,3.38-3.036l.015-.009a14.123,14.123,0,0,0,5.466-4.94c1.832-2.926,2.6-6.786,1.294-11.668C-1897.738-1110.538-1899.984-1113.365-1902.686-1115.031Z" transform="translate(1918.629 1117.095)"/></g><g transform="translate(0 2.381)"><path class="a" d="M-1942.542-1102.766a3.468,3.468,0,0,0,2.465-4.269,3.459,3.459,0,0,0-4.258-2.422,3.422,3.422,0,0,0-2.434,4.215A3.431,3.431,0,0,0-1942.542-1102.766Z" transform="translate(1946.889 1109.578)"/></g><g transform="translate(3.203 12.129)"><path class="a" d="M-1927.46-1065.206a26.2,26.2,0,0,0-1.731-4.272l-1.341-3.611-1-3.741a2.665,2.665,0,0,0-3.049-1.932l-.022,0c-.065.012-.13.025-.195.042l-.01,0-.011,0a2.223,2.223,0,0,0-.432.163,2.666,2.666,0,0,0-1.433,3.1l.971,3.623.719,4.074a31.19,31.19,0,0,0,.637,4.565c.879,3.282,2.26,4.9,4.827,4.215l.01,0,.011,0a2.725,2.725,0,0,0,.264-.086C-1926.918-1059.842-1926.615-1062.051-1927.46-1065.206Z" transform="translate(1936.777 1078.805)"/></g></g></g></svg>