<svg xmlns="http://www.w3.org/2000/svg" width="210" height="75.576" viewBox="0 0 210 75.576"><defs><style>.a{fill:#fff;}</style></defs><g transform="translate(1946.889 1117.095)"><g transform="translate(-1887.032 -1097.113)"><path class="a" d="M-1803.4-1050.795c0,2-1.406,3.4-4.216,4.512a25.066,25.066,0,0,1-9.615,1.627c-5.7,0-10.28-1.775-13.387-4.955a18.281,18.281,0,0,1-4.955-13.092,17.677,17.677,0,0,1,4.807-12.5c2.958-2.959,7.175-4.734,12.5-4.734,5.473,0,9.392,1.775,12.055,4.438a14.939,14.939,0,0,1,4.216,10.651c0,3.476-1.775,5.473-4.807,5.473H-1825.3c.888,4.512,3.92,6.952,8.728,6.952,5.177,0,7.1-2.293,9.541-2.293A3.749,3.749,0,0,1-1803.4-1050.795Zm-8.062-15.014c-.3-3.551-2.736-6.436-6.73-6.436-4.068,0-6.509,2.515-7.174,6.436Z" transform="translate(1835.578 1079.936)"/><path class="a" d="M-1730.454-1032.3a4.754,4.754,0,0,1-4.882,4.734,4.847,4.847,0,0,1-4.882-4.734v-14.866a11.516,11.516,0,0,1-7.914,2.514c-9.763,0-15.236-7.248-15.236-17.381a17.494,17.494,0,0,1,4.216-12.056c3.624-3.994,9.393-5.843,15.681-5.843a35.5,35.5,0,0,1,7.913.666c3.254.74,5.1,2.441,5.1,6.509Zm-9.763-39.126a23.076,23.076,0,0,0-4.068-.37,9.111,9.111,0,0,0-7.618,3.4,10.166,10.166,0,0,0-1.85,6.212,11.351,11.351,0,0,0,2,7.028,6.5,6.5,0,0,0,5.326,2.514c4.733,0,6.212-3.994,6.212-8.358Z" transform="translate(1802.198 1079.936)"/><path class="a" d="M-1685.381-1075.2a4.8,4.8,0,0,1,4.881-4.734,4.8,4.8,0,0,1,4.881,4.734v14.571a9.371,9.371,0,0,0,.962,4.585c1.035,1.85,2.958,3.107,6.065,3.107s5.029-1.257,5.991-3.107a9.365,9.365,0,0,0,.961-4.585V-1075.2a4.8,4.8,0,0,1,4.882-4.734,4.8,4.8,0,0,1,4.881,4.734v15.163c0,4.438-.962,7.618-2.958,10.059-2.958,3.7-7.766,5.325-13.757,5.325-6.065,0-10.946-1.7-13.831-5.325-1.923-2.515-2.958-5.621-2.958-10.059Z" transform="translate(1766.148 1079.936)"/><path class="a" d="M-1582.331-1078.531a5.063,5.063,0,0,1,2.885,4.438,4.243,4.243,0,0,1-4.215,4.511c-2.441,0-3.4-1.775-6.435-1.775-5.03,0-6.435,4.66-6.435,9.32v12.647a4.9,4.9,0,0,1-4.881,4.734,4.8,4.8,0,0,1-4.882-4.734V-1075.2a4.8,4.8,0,0,1,4.882-4.734,4.849,4.849,0,0,1,4.734,3.846,10.579,10.579,0,0,1,8.358-3.846A12.549,12.549,0,0,1-1582.331-1078.531Z" transform="translate(1729.59 1079.936)"/></g><g transform="translate(-1946.889 -1117.095)"><g transform="translate(27.731 63.806)"><path class="a" d="M-1890.984-998.229a5.809,5.809,0,0,0-4.131,7.156,5.871,5.871,0,0,0,7.175,4.2,5.825,5.825,0,0,0,4.113-7.227A5.763,5.763,0,0,0-1890.984-998.229Z" transform="translate(1895.321 998.44)"/></g><g transform="translate(15.197)"><path class="a" d="M-1891.563-1113.591c-7.252-4.489-14.564-4.061-21.994-2.07l-1.754.47a4.475,4.475,0,0,0-3.164,5.48,4.475,4.475,0,0,0,5.48,3.164l.253-.068c5.573-1.493,10.509-1.36,14.37,1.05,3.028,1.869,5.343,5.078,6.683,10.078.193.72.344,1.421.462,2.1a17.488,17.488,0,0,1-.135,6.889,12.711,12.711,0,0,1-1.322,3.295,14.445,14.445,0,0,1-3.961,4.385c-.091.065-.178.132-.272.2-.148.106-.3.21-.448.312-.036.023-.069.049-.1.072l-.147.1q-1.225.844-2.273,1.693l-.021.016c-.226.183-.444.365-.657.547l-.114.1c-.213.182-.42.364-.621.546l-.033.031a30.028,30.028,0,0,0-2.287,2.3l-.038.043a25.834,25.834,0,0,0-2.078,2.671l-.029.042c-.435.649-.8,1.257-1.1,1.813l-.042.078c-.064.121-.126.238-.184.354l-.053.105c-.037.074-.077.151-.112.223-.01.021-.018.041-.027.062a12.128,12.128,0,0,0-.954,2.565h0l0,0a8.761,8.761,0,0,0-.245,4.78,4.667,4.667,0,0,0,5.621,3.548c2.572-.69,3.623-2.2,3.7-5.051a7.77,7.77,0,0,1,.076-.816,8.553,8.553,0,0,1,.729-2.478c.767-1.452,2.365-3.35,5.738-5.154l.025-.015a23.975,23.975,0,0,0,9.279-8.386c3.109-4.968,4.417-11.52,2.2-19.808C-1883.164-1105.964-1886.976-1110.761-1891.563-1113.591Z" transform="translate(1918.629 1117.096)"/></g><g transform="translate(0 4.042)"><path class="a" d="M-1939.509-1098.013a5.887,5.887,0,0,0,4.184-7.247,5.873,5.873,0,0,0-7.228-4.112,5.809,5.809,0,0,0-4.132,7.157A5.824,5.824,0,0,0-1939.509-1098.013Z" transform="translate(1946.889 1109.578)"/></g><g transform="translate(5.438 20.591)"><path class="a" d="M-1920.96-1055.719a44.466,44.466,0,0,0-2.938-7.253l-2.276-6.13-1.7-6.351a4.524,4.524,0,0,0-5.176-3.28l-.037.007c-.11.021-.22.042-.331.071l-.017.005-.019,0a3.76,3.76,0,0,0-.734.277,4.525,4.525,0,0,0-2.432,5.258l1.648,6.15,1.22,6.916a52.957,52.957,0,0,0,1.082,7.75c1.493,5.573,3.836,8.323,8.194,7.155l.017-.006.019,0a4.67,4.67,0,0,0,.448-.146C-1920.04-1046.613-1919.525-1050.363-1920.96-1055.719Z" transform="translate(1936.777 1078.805)"/></g></g></g></svg>