<svg xmlns="http://www.w3.org/2000/svg" width="279.149" height="316" viewBox="0 0 279.149 316"><defs><style>.a{fill:#ef2e3a;}.b{fill:#cb2d3e;}.c{fill:#322323;}.d{fill:#fefefe;}.e{fill:#5b4f4f;}.f{fill:#fff;}</style></defs><g transform="translate(2415.028 151.224)"><g transform="translate(-2415.028 13.677)"><g transform="translate(4.002 4.368)"><path class="a" d="M-2356.825,348.759s25.716,8.335,2.967,50.536-48.514,22.1-49.257,11.8S-2401.056,355.5-2356.825,348.759Z" transform="translate(2403.207 -348.759)"/></g><g transform="translate(2.92 5.195)"><path class="b" d="M-2371.752,362.717s8.4-4.777,9.819,8.581-7.093,30.263-15.368,35.346-20.538,5.78-20.451-10.994-11.105,5.083-8.154,14.777,11.532,19.02,25.087,11.7,33.188-32.39,33.306-47.285-7.149-30.422-23.051-20.525C-2370.563,354.32-2374.6,357.091-2371.752,362.717Z" transform="translate(2406.402 -351.202)"/></g><g transform="translate(4.002 5.627)"><path class="a" d="M-2368.826,352.477s3.208,34.984-34.381,50.081C-2401.431,392.709-2384.332,359.292-2368.826,352.477Z" transform="translate(2403.207 -352.477)"/></g><g transform="translate(8.606 10.751)"><path class="b" d="M-2361.158,375.984s-13.192,6.761-28.442,29.576c-.415-9.082,14.186-33.809,27.662-37.946C-2360.933,367.744-2361.158,375.984-2361.158,375.984Z" transform="translate(2389.608 -367.614)"/></g><path class="c" d="M-2395.185,418.708a17.981,17.981,0,0,1-11.459-4.055c-6.09-4.912-9.227-13.41-8.187-22.178,1.982-16.7,12-34.241,26.8-46.917,10.119-8.665,19.392-11.6,26.818-8.5h0c8.882,3.716,12.4,15.14,11.94,24.813-.528,11.176-4.628,23-11.547,33.307-7.264,10.818-16.953,18.733-27.28,22.288A21.772,21.772,0,0,1-2395.185,418.708Zm27.865-76.637c-6.062,0-12.8,4.883-16.67,8.2-13.649,11.689-22.875,27.739-24.678,42.935-.779,6.565,1.545,13.087,5.92,16.615,3.483,2.809,7.851,3.424,12.633,1.778,18.1-6.229,33.639-28.668,34.648-50.02.343-7.269-2.056-16.252-8.135-18.795A9.559,9.559,0,0,0-2367.321,342.071Z" transform="translate(2415.028 -335.857)"/><g transform="translate(1.692 3.903)"><path class="c" d="M-2408.306,401.13a1.725,1.725,0,0,1-1.622-1.138,1.724,1.724,0,0,1,1.035-2.207c15.163-5.482,25.462-15.282,30.612-29.128a50.765,50.765,0,0,0,3.222-19.411,1.725,1.725,0,0,1,1.583-1.853,1.721,1.721,0,0,1,1.854,1.58A53.25,53.25,0,0,1-2375,369.717c-3.781,10.253-12.528,24.008-32.724,31.31A1.727,1.727,0,0,1-2408.306,401.13Z" transform="translate(2410.031 -347.387)"/></g></g><g transform="translate(-2201.677 13.677)"><g transform="translate(3.053 4.368)"><path class="a" d="M-1763.455,348.759s-25.715,8.335-2.967,50.536,48.513,22.1,49.257,11.8S-1719.225,355.5-1763.455,348.759Z" transform="translate(1775.817 -348.759)"/></g><g transform="translate(28.068 6.193)"><path class="a" d="M-1701.509,354.152s-3.34,15.215,8.806,31.741,24.5,16.969,24.5,16.969S-1675.56,368.036-1701.509,354.152Z" transform="translate(1701.929 -354.152)"/></g><g transform="translate(3.804 7.865)"><path class="b" d="M-1767.565,359.089s-.47,51.117,49.357,58.919c-2.66,10.994-15.786,14.895-31.831,1.419S-1782.876,375.176-1767.565,359.089Z" transform="translate(1773.597 -359.089)"/></g><g transform="translate(28.027 8.432)"><path class="b" d="M-1671.414,404.754s-14.629-23.583-29.258-30.676c-2.029-13.3-1.216-13.312-1.216-13.312S-1668.932,386.756-1671.414,404.754Z" transform="translate(1702.048 -360.765)"/></g><g transform="translate(0)"><path class="c" d="M-1738.879,418.708a21.763,21.763,0,0,1-7.089-1.24c-10.327-3.555-20.016-11.47-27.28-22.288-6.917-10.3-11.018-22.131-11.547-33.307-.457-9.674,3.058-21.1,11.939-24.813h0c7.426-3.105,16.7-.167,26.818,8.5,14.8,12.676,24.823,30.215,26.8,46.917,1.04,8.768-2.1,17.266-8.187,22.178A17.981,17.981,0,0,1-1738.879,418.708Zm-31.581-75.923c-6.079,2.543-8.479,11.526-8.135,18.795,1.009,21.352,16.551,43.791,34.647,50.02,4.781,1.646,9.15,1.031,12.633-1.778,4.375-3.528,6.7-10.051,5.92-16.615-1.8-15.2-11.028-31.246-24.678-42.935-4.692-4.018-13.577-10.334-20.387-7.487Z" transform="translate(1784.835 -335.858)"/></g><g transform="translate(25.635 3.903)"><path class="c" d="M-1672.367,401.129a1.728,1.728,0,0,1-.586-.1c-20.2-7.3-28.943-21.057-32.724-31.31a53.244,53.244,0,0,1-3.376-20.745,1.726,1.726,0,0,1,1.856-1.581,1.724,1.724,0,0,1,1.581,1.854h0a50.788,50.788,0,0,0,3.222,19.411c5.15,13.846,15.449,23.646,30.612,29.128a1.724,1.724,0,0,1,1.035,2.207A1.725,1.725,0,0,1-1672.367,401.129Z" transform="translate(1709.114 -347.385)"/></g></g><g transform="translate(-2391.006 -148.066)"><g transform="translate(0 0)"><path class="a" d="M-2140.688-92.13c-12.344-40.686-61.211-48.189-82.711-49.5l0-.237s-1.884-.07-5.123.013c-3.239-.083-5.122-.013-5.122-.013v.237c-21.5,1.312-70.366,8.814-82.711,49.5-20.94,15.851-27.721,23.872-27.721,23.872l4.482,46.123,24.313,11.345s9.6,27.741,31.543,36.476c0,0-30.154,41.017,0,95.355,19.051,33.251,39.182,47,55.215,46.829,16.033.167,36.165-13.578,55.216-46.829,30.154-54.338,0-95.355,0-95.355,21.941-8.735,31.543-36.476,31.543-36.476l24.312-11.345,4.482-46.123S-2119.748-76.279-2140.688-92.13Z" transform="translate(2344.073 141.895)"/></g></g><g transform="translate(-2234.486 -139.797)"><g transform="translate(0)"><path class="d" d="M-1881.744-104.358s78.132,29.648,26.659,133.5c0,0,41.166-38.131,18.525-109.914-10.938-24.971-41.169-36.7-41.169-36.7Z" transform="translate(1881.744 117.471)"/></g></g><g transform="translate(-2341.625 19.517)"><path class="b" d="M-2075.5,362.762s-38.246,25.164-100.485,17.3c0,0-17.378,58.1,33.336,112.007-30.5-15.25-53.2-46.624-55.323-89.1s10.718-49.867,10.718-49.867,39.286,29.027,107.731,3.493A4.739,4.739,0,0,1-2075.5,362.762Z" transform="translate(2198.21 -353.107)"/></g><g transform="translate(-2178.792 -79.097)"><g transform="translate(0 0)"><path class="b" d="M-1717.236,116.231c10.082-1.6,14.028-3.625,14.021-15.111s2.275-39.3,2.275-39.3S-1708.377,94.066-1717.236,116.231Z" transform="translate(1717.236 -61.824)"/></g></g><g transform="translate(-2378.776 -98.532)"><g transform="translate(0 0)"><path class="b" d="M-2307.08,15.438s-4.95,39.592,8.781,64.416l7.505,3.554s-13.3-62.266-2.815-78.76C-2299.284,2.544-2307.08,15.438-2307.08,15.438Z" transform="translate(2307.948 -4.416)"/></g></g><g transform="translate(-2369.126 -148.119)"><g transform="translate(0)"><path class="b" d="M-2152.056-109.967s4.26,6.053-20.564,6.407-45.92.354-50,3.9-33.694,86.177,24.467,134.763c0,0-73.566,9.575-81.291-84.4.769-39.034,6.343-85.853,94.175-92.753,0,0,35.074,3.384,37.249,15.442S-2152.056-109.967-2152.056-109.967Z" transform="translate(2279.444 142.053)"/></g></g><g transform="translate(-2320.436 -148.119)"><path class="c" d="M-2090.138-142.041v-.012s-.178,0-.5,0-.5,0-.5,0v.012c-5.991.092-37.093.924-44.48,8.311,0,0,4.357,20.194,11.267,23.764,6.357,3.284,29.974,2.847,33.715,2.756,3.741.091,27.358.528,33.715-2.756,6.91-3.57,11.267-23.764,11.267-23.764C-2053.045-141.117-2084.146-141.949-2090.138-142.041Z" transform="translate(2135.622 142.053)"/></g><g transform="translate(-2312.303 71.252)"><path class="c" d="M-2074.75,506.264s-27.8-1.241-36.85,4.61c4.075,30.144,7.267,37.946,7.267,37.946s34.046,7.625,59.225-1.064c3.724-9.22,6.029-37.591,6.029-37.591S-2062.013,504.491-2074.75,506.264Z" transform="translate(2111.6 -505.921)"/></g><g transform="translate(-2350.607 -93.334)"><g transform="translate(0 0)"><path class="c" d="M-2133.955,20.63V20.5l-2.087-.093a117.306,117.306,0,0,0-12.957-.63l-.589.026-.589-.026a117.3,117.3,0,0,0-12.957.63l-2.088.093v.128c-20.918,2.373-56.571,11.214-59.52,43.847,2.837,26.6,11.753,53.364,41.34,52.925,15.837-1.645,24.464-9.954,30.849-11.836a20.111,20.111,0,0,1,2.965-.371,20.126,20.126,0,0,1,2.965.371c6.384,1.882,15.011,10.191,30.848,11.836,29.587.439,38.5-26.327,41.341-52.925C-2077.384,31.844-2113.038,23-2133.955,20.63Z" transform="translate(2224.743 -19.771)"/></g></g><g transform="translate(-2325.577 -86.438)"><g transform="translate(0 0)"><path class="e" d="M-2051.894,50.712c-11.093-6.141-24.577-8.7-33.936-9.757l-1.624-.184-.178-.008-.183-.018c-5.555-.546-9.769-.6-11.323-.6-.379,0-.63,0-.736.005l-.812.037-.812-.037c-.111,0-.361-.005-.738-.005-1.553,0-5.767.059-11.322.6l-.183.018-.178.008-1.624.184c-9.358,1.062-22.843,3.616-33.936,9.757-.453.251-.9.506-1.332.764,37.813,4.037,85.3,16.729,112.166,52.918,2.943-6.9,4.978-15.646,6.179-26.479C-2033.726,66.151-2040.088,57.248-2051.894,50.712Z" transform="translate(2150.81 -40.139)"/></g></g><g transform="translate(-2380.804 -76.266)"><g transform="translate(0 0)"><path class="c" d="M-2308.144,73.083a2.9,2.9,0,0,1-2.9,2.9,2.9,2.9,0,0,1-2.9-2.9,2.9,2.9,0,0,1,2.9-2.9A2.9,2.9,0,0,1-2308.144,73.083Z" transform="translate(2313.937 -70.187)"/></g></g><g transform="translate(-2377.907 -39.801)"><g transform="translate(0)"><path class="c" d="M-2299.589,180.792a2.9,2.9,0,0,1-2.9,2.9,2.9,2.9,0,0,1-2.9-2.9,2.9,2.9,0,0,1,2.9-2.9A2.9,2.9,0,0,1-2299.589,180.792Z" transform="translate(2305.382 -177.896)"/></g></g><g transform="translate(-2175.896 -76.266)"><g transform="translate(0 0)"><path class="c" d="M-1708.682,73.083a2.9,2.9,0,0,0,2.9,2.9,2.9,2.9,0,0,0,2.9-2.9,2.9,2.9,0,0,0-2.9-2.9A2.9,2.9,0,0,0-1708.682,73.083Z" transform="translate(1708.682 -70.187)"/></g></g><g transform="translate(-2178.792 -39.801)"><g transform="translate(0)"><path class="c" d="M-1717.236,180.792a2.9,2.9,0,0,0,2.9,2.9,2.9,2.9,0,0,0,2.9-2.9,2.9,2.9,0,0,0-2.9-2.9A2.9,2.9,0,0,0-1717.236,180.792Z" transform="translate(1717.236 -177.896)"/></g></g><g transform="translate(-2254.813 28.701)"><g transform="translate(0)"><path class="d" d="M-1905.889,380.707s15.482,83.03-35.9,125.841c18.932-14.263,48.172-41.127,46.318-96.184C-1897,393.931-1899.127,377.2-1905.889,380.707Z" transform="translate(1941.788 -380.237)"/></g></g><g transform="translate(-2183.454 -98.3)"><g transform="translate(0 0)"><path class="d" d="M-1710.846,27.639l-19.212-7.974-.95-14.563,21.988,18.346Z" transform="translate(1731.009 -5.102)"/></g></g><g transform="translate(-2220.36 -117.583)"><g transform="translate(0 0)"><ellipse class="d" cx="7.743" cy="11.451" rx="7.743" ry="11.451" transform="matrix(0.78, -0.626, 0.626, 0.78, 0, 9.688)"/></g></g><g transform="translate(-2319.399 -147.851)"><g transform="translate(0 0)"><path class="e" d="M-2132.56-130.875s48.231-6.01,83.517,10.206c1.877-4.242,6.889-9.9,5.41-12.538-2.574-4.583-13.486-4.543-13.486-4.543S-2110.906-149.147-2132.56-130.875Z" transform="translate(2132.56 141.261)"/></g></g><g transform="translate(-2312.303 71.128)"><path class="e" d="M-2111.6,510.633s36.17-10.285,66.491,36.882c0,0,8.157-18.618,6.029-37.591C-2039.08,509.924-2081.1,499.639-2111.6,510.633Z" transform="translate(2111.6 -505.556)"/></g><g transform="translate(-2394.109 -101.403)"><path class="c" d="M-2319.4,84.391a3.1,3.1,0,0,1-1.311-.292l-26.256-12.253a3.1,3.1,0,0,1-1.778-2.528l-4.482-48.713a3.1,3.1,0,0,1,1.15-2.706l26.57-21.282a3.1,3.1,0,0,1,4.362.482,3.1,3.1,0,0,1-.481,4.362L-2346.893,21.7l4.166,45.277,24.642,11.5a3.1,3.1,0,0,1,1.5,4.124A3.1,3.1,0,0,1-2319.4,84.391Z" transform="translate(2353.239 4.064)"/></g><g transform="translate(-2322.264 0.949)"><path class="c" d="M-2131.062,326.2a1.725,1.725,0,0,1-1.624-1.145c-2.958-8.284-5.737-16.544-8.258-24.548a1.724,1.724,0,0,1,1.126-2.162,1.725,1.725,0,0,1,2.162,1.126c2.508,7.964,5.272,16.181,8.216,24.425a1.724,1.724,0,0,1-1.044,2.2A1.722,1.722,0,0,1-2131.062,326.2Z" transform="translate(2141.023 -298.262)"/></g><g transform="translate(-2343.032 -132.153)"><path class="c" d="M-2198.112-36.779a1.724,1.724,0,0,1-1.706-1.494c-4.977-37-1.164-54.547-1-55.276a1.724,1.724,0,0,1,2.062-1.3,1.724,1.724,0,0,1,1.3,2.06h0c-.039.174-3.828,17.773,1.052,54.057a1.724,1.724,0,0,1-1.479,1.939A1.745,1.745,0,0,1-2198.112-36.779Z" transform="translate(2202.368 94.893)"/></g><g transform="translate(-2322.264 130.049)"><path class="c" d="M-2094.212,695.035c-24.681,0-45.1-11.725-45.954-12.224a1.724,1.724,0,0,1-.622-2.357,1.723,1.723,0,0,1,2.357-.622h0c.2.117,20.5,11.756,44.219,11.756a1.724,1.724,0,0,1,1.724,1.724A1.724,1.724,0,0,1-2094.212,695.035Z" transform="translate(2141.023 -679.597)"/></g><g transform="translate(-2313.144 69.801)"><path class="c" d="M-2076.393,550.37c-18.327,0-29.931-3.3-30.416-3.437a1.722,1.722,0,0,1-1.072-.9c-6.132-12.624-6.2-37.641-6.2-38.7a1.724,1.724,0,0,1,1.026-1.576c11.052-4.892,35.682-4.084,36.725-4.047a1.724,1.724,0,0,1,1.662,1.784,1.73,1.73,0,0,1-1.783,1.663c-.239-.009-23.32-.767-34.168,3.329.089,4.96.74,24.7,5.512,35.334a122.9,122.9,0,0,0,28.717,3.106,1.724,1.724,0,0,1,1.724,1.724A1.724,1.724,0,0,1-2076.393,550.37Z" transform="translate(2114.083 -501.636)"/></g><path class="c" d="M-2098.1-92.838c-2.993-12.463-7.984-22.385-14.835-29.491-15.248-15.818-35.931-22.825-50.6-25.918a130.962,130.962,0,0,0-28.3-2.961,131.008,131.008,0,0,0-28.3,2.961c-14.666,3.093-35.349,10.1-50.6,25.918-6.85,7.106-11.842,17.029-14.834,29.491a125.958,125.958,0,0,0-2.711,37.347c2.069,30.429,13.15,57.778,28.231,69.677,15.474,12.209,33.216,17.452,45.374,19.7a116.859,116.859,0,0,0,20.719,2.019c1.094,0,1.813-.024,2.117-.036.3.012,1.022.036,2.118.036a116.914,116.914,0,0,0,20.719-2.019c12.158-2.247,29.9-7.49,45.374-19.7,15.081-11.9,26.162-39.248,28.231-69.677A125.975,125.975,0,0,0-2098.1-92.838Zm-3.482,36.926a133.124,133.124,0,0,1-8.324,38.735c-4.643,11.93-10.714,21.09-17.558,26.49a93.222,93.222,0,0,1-32.41,16.077,118.066,118.066,0,0,1-37.346,4.211A113.407,113.407,0,0,1-2233.5,22.13a88.774,88.774,0,0,1-22.7-12.816c-6.844-5.4-12.916-14.56-17.558-26.49a133.124,133.124,0,0,1-8.324-38.735c-1.817-26.729,4.1-49.948,15.822-62.11,14.116-14.644,33.488-21.2,47.253-24.12a150.822,150.822,0,0,1,27.488-2.865c.131,0,48.322.229,74.113,26.984C-2105.679-105.86-2099.765-82.641-2101.583-55.912Z" transform="translate(-83.622)"/><g transform="translate(-2193.743 -101.403)"><path class="c" d="M-1758.293,84.39a3.1,3.1,0,0,1-2.814-1.792,3.1,3.1,0,0,1,1.5-4.124l24.642-11.5L-1730.8,21.7l-25.267-20.238a3.1,3.1,0,0,1-.482-4.362,3.1,3.1,0,0,1,4.362-.482l26.57,21.282a3.1,3.1,0,0,1,1.15,2.706l-4.482,48.713a3.1,3.1,0,0,1-1.778,2.528L-1756.983,84.1A3.09,3.09,0,0,1-1758.293,84.39Z" transform="translate(1761.399 4.065)"/></g><path class="c" d="M-2073.987,366.434c-3.971-13.308-9.609-20.931-9.846-21.249a3.1,3.1,0,0,0-4.344-.625,3.1,3.1,0,0,0-.625,4.344c.211.281,20.919,28.631,8.38,71.332-7.409,25.231-19.532,40.82-28.4,49.453-10.55,10.275-22.541,16.409-32.076,16.409s-21.526-6.134-32.076-16.409c-8.865-8.633-20.988-24.222-28.4-49.453-6.526-22.224-3.911-40.412-.568-51.756,3.636-12.337,8.9-19.509,8.952-19.58a3.1,3.1,0,0,0-.628-4.339,3.1,3.1,0,0,0-4.344.625c-.238.318-5.875,7.941-9.846,21.249-3.64,12.2-6.512,31.74.48,55.551,7.789,26.522,20.625,43,30.022,52.15,11.856,11.546,25.125,18.169,36.406,18.169s24.55-6.622,36.406-18.169c9.4-9.152,22.233-25.628,30.022-52.15C-2067.475,398.174-2070.346,378.633-2073.987,366.434Z" transform="translate(-134.558 -327.528)"/><path class="c" d="M-2083.614,39.683c-4.053-7.129-10.489-13.093-19.128-17.725a90.632,90.632,0,0,0-24.133-8.387,140.217,140.217,0,0,0-29.477-2.933,140.243,140.243,0,0,0-29.477,2.933,90.623,90.623,0,0,0-24.132,8.387c-8.64,4.632-15.075,10.6-19.128,17.725-7.871,13.846-7.836,31.01.1,47.093,7.353,14.9,20.042,25.633,32.328,27.329a36.565,36.565,0,0,0,5.016.354c9.275,0,15.847-3.781,21.746-7.174,4.72-2.716,8.8-5.061,13.549-5.061s8.829,2.345,13.549,5.06c5.9,3.394,12.47,7.175,21.747,7.175a36.576,36.576,0,0,0,5.016-.354c12.285-1.7,24.975-12.424,32.327-27.329C-2075.779,70.693-2075.744,53.529-2083.614,39.683Zm-5.665,44.348c-6.368,12.91-17.464,22.525-27.611,23.927-9.918,1.37-16.476-2.4-22.818-6.052-5.032-2.894-10.234-5.887-16.644-5.887s-11.612,2.993-16.644,5.887c-6.343,3.649-12.9,7.422-22.818,6.052-10.146-1.4-21.243-11.017-27.611-23.928-7.008-14.207-7.106-29.252-.269-41.28,15.351-27,66.669-25.921,67.254-25.906h.043l.044,0h.087c.514-.014,51.894-1.115,67.256,25.906C-2082.172,54.778-2082.271,69.823-2089.279,84.03Z" transform="translate(-119.101 -107.054)"/><g transform="translate(-2240.328 0.949)"><path class="c" d="M-1897.278,326.2a1.722,1.722,0,0,1-.58-.1,1.724,1.724,0,0,1-1.044-2.2c2.944-8.244,5.708-16.461,8.216-24.425a1.724,1.724,0,0,1,2.162-1.126,1.724,1.724,0,0,1,1.127,2.162c-2.521,8-5.3,16.264-8.258,24.549A1.725,1.725,0,0,1-1897.278,326.2Z" transform="translate(1899.002 -298.261)"/></g><g transform="translate(-2213.857 -132.152)"><path class="c" d="M-1819.086-36.777a1.746,1.746,0,0,1-.232-.016,1.724,1.724,0,0,1-1.479-1.939c4.88-36.284,1.091-53.884,1.053-54.057a1.724,1.724,0,0,1,1.3-2.059,1.724,1.724,0,0,1,2.06,1.3c.164.729,3.978,18.276-1,55.276A1.724,1.724,0,0,1-1819.086-36.777Z" transform="translate(1820.812 94.89)"/></g><g transform="translate(-2277.177 130.05)"><path class="c" d="M-2006.122,695.036a1.724,1.724,0,0,1-1.724-1.724,1.724,1.724,0,0,1,1.724-1.724c23.759,0,44.017-11.638,44.219-11.755a1.724,1.724,0,0,1,2.357.622,1.724,1.724,0,0,1-.622,2.357C-1961.025,683.312-1981.441,695.036-2006.122,695.036Z" transform="translate(2007.846 -679.599)"/></g><g transform="translate(-2277.177 69.801)"><path class="c" d="M-2006.122,550.37a1.724,1.724,0,0,1-1.724-1.724,1.724,1.724,0,0,1,1.724-1.724,122.9,122.9,0,0,0,28.717-3.106c4.774-10.641,5.424-30.375,5.512-35.334-10.853-4.1-33.928-3.338-34.168-3.329a1.731,1.731,0,0,1-1.784-1.663,1.724,1.724,0,0,1,1.662-1.783c1.042-.037,25.673-.844,36.724,4.047a1.723,1.723,0,0,1,1.026,1.576c0,1.059-.07,26.076-6.2,38.7a1.722,1.722,0,0,1-1.071.9C-1976.191,547.073-1987.8,550.37-2006.122,550.37Z" transform="translate(2007.846 -501.636)"/></g><path class="c" d="M-2048.625-123.615a1.723,1.723,0,0,0-2.162,1.126c-1.513,4.8-6.021,17.995-8.673,21.379-2.6,3.315-6.144,3.285-10.63,3.248-.455,0-.912-.007-1.372-.007h-45.571c-.459,0-.917,0-1.371.007-4.488.037-8.032.067-10.63-3.248-2.652-3.384-7.16-16.58-8.673-21.379a1.724,1.724,0,0,0-2.162-1.126,1.724,1.724,0,0,0-1.126,2.163c.23.729,5.668,17.9,9.248,22.469,3.308,4.22,7.686,4.576,12.042,4.576.444,0,.888,0,1.331-.007s.893-.007,1.342-.007h45.571c.45,0,.9,0,1.343.007s.886.007,1.33.007c4.356,0,8.735-.357,12.042-4.576,3.58-4.568,9.018-21.741,9.248-22.47A1.724,1.724,0,0,0-2048.625-123.615Z" transform="translate(-181.206 -18.209)"/><g transform="translate(-2280.576 35.185)"><path class="c" d="M-2012.762,399.389h-5.123c3.359,5.792,5.123,20.451,5.123,20.451s1.763-14.658,5.123-20.451Z" transform="translate(2017.885 -399.389)"/></g><g transform="translate(-2301.525 -79.519)"><g transform="translate(24.57 56.535)"><path class="f" d="M-2003.348,227.757a5.147,5.147,0,0,0-3.661,6.341,5.2,5.2,0,0,0,6.358,3.724,5.161,5.161,0,0,0,3.644-6.4A5.106,5.106,0,0,0-2003.348,227.757Z" transform="translate(2007.19 -227.57)"/></g><g transform="translate(13.465)"><path class="f" d="M-2016.011,63.682c-6.426-3.978-12.9-3.6-19.488-1.834l-1.554.416a3.965,3.965,0,0,0-2.8,4.856,3.965,3.965,0,0,0,4.856,2.8l.224-.06c4.938-1.323,9.311-1.206,12.733.93,2.683,1.656,4.734,4.5,5.921,8.93.171.639.3,1.259.409,1.865a15.493,15.493,0,0,1-.119,6.1A11.266,11.266,0,0,1-2017,90.612a12.81,12.81,0,0,1-3.509,3.885c-.081.058-.158.117-.242.173-.131.093-.262.187-.4.277l-.092.063-.131.091q-1.086.749-2.014,1.5l-.018.015c-.2.162-.393.323-.583.485l-.1.086q-.282.243-.55.484l-.029.027a26.656,26.656,0,0,0-2.026,2.04l-.034.038a22.8,22.8,0,0,0-1.841,2.366l-.026.038c-.386.575-.707,1.113-.973,1.606l-.037.069q-.085.16-.163.313l-.047.094c-.032.065-.068.134-.1.2l-.024.055a10.786,10.786,0,0,0-.845,2.273h0a7.763,7.763,0,0,0-.217,4.235,4.135,4.135,0,0,0,4.981,3.143c2.279-.61,3.21-1.945,3.279-4.475a7.094,7.094,0,0,1,.067-.723,7.56,7.56,0,0,1,.647-2.2,11.613,11.613,0,0,1,5.083-4.566l.022-.013a21.245,21.245,0,0,0,8.221-7.43c2.755-4.4,3.914-10.208,1.946-17.551C-2008.569,70.44-2011.947,66.189-2016.011,63.682Z" transform="translate(2039.993 -60.577)"/></g><g transform="translate(0 3.582)"><path class="f" d="M-2073.226,81.4a5.217,5.217,0,0,0,3.707-6.421,5.2,5.2,0,0,0-6.4-3.644,5.146,5.146,0,0,0-3.661,6.341A5.161,5.161,0,0,0-2073.226,81.4Z" transform="translate(2079.765 -71.157)"/></g><g transform="translate(4.818 18.244)"><path class="f" d="M-2051.519,134.922a39.4,39.4,0,0,0-2.6-6.426l-2.016-5.431-1.508-5.627a4.009,4.009,0,0,0-4.586-2.906l-.033.007c-.1.019-.2.037-.293.063l-.015,0-.017,0a3.371,3.371,0,0,0-.65.245,4.01,4.01,0,0,0-2.155,4.659l1.46,5.449,1.081,6.128a46.857,46.857,0,0,0,.958,6.867c1.323,4.937,3.4,7.375,7.261,6.34l.015-.005.017,0a4.142,4.142,0,0,0,.4-.129C-2050.7,142.989-2050.248,139.667-2051.519,134.922Z" transform="translate(2065.533 -114.466)"/></g></g></g></svg>